<?xml version="1.0" encoding="UTF-8"?>
<!DOCTYPE svg PUBLIC "-//W3C//DTD SVG 1.1//EN" "http://www.w3.org/Graphics/SVG/1.1/DTD/svg11.dtd">
<svg xmlns="http://www.w3.org/2000/svg" version="1.1" width="986px" height="1144px" style="shape-rendering:geometricPrecision; text-rendering:geometricPrecision; image-rendering:optimizeQuality; fill-rule:evenodd; clip-rule:evenodd" xmlns:xlink="http://www.w3.org/1999/xlink">
<g><path style="opacity:0.424" fill="#4f4445" d="M 783.5,0.5 C 783.5,0.166667 783.5,-0.166667 783.5,-0.5C 788.833,-0.5 794.167,-0.5 799.5,-0.5C 803.167,0.166667 806.833,0.833333 810.5,1.5C 809.5,1.5 808.5,1.5 807.5,1.5C 799.846,0.929542 792.179,0.596209 784.5,0.5C 784.167,0.5 783.833,0.5 783.5,0.5 Z"/></g>
<g><path style="opacity:1" fill="#cfa6b2" d="M 784.5,0.5 C 792.179,0.596209 799.846,0.929542 807.5,1.5C 879.619,10.6231 932.452,47.2897 966,111.5C 974.661,131.492 980.494,152.158 983.5,173.5C 984.486,177.97 984.819,182.637 984.5,187.5C 985.704,237.683 974.204,284.683 950,328.5C 945.289,335.269 941.122,342.269 937.5,349.5C 936.504,349.414 935.671,349.748 935,350.5C 933.121,352.527 931.954,354.86 931.5,357.5C 928.703,357.967 927.369,359.633 927.5,362.5C 924.703,362.967 923.369,364.633 923.5,367.5C 923.5,368.167 923.167,368.5 922.5,368.5C 917.709,370.952 914.376,374.619 912.5,379.5C 909.833,382.833 906.833,385.833 903.5,388.5C 902.5,388.5 901.5,388.5 900.5,388.5C 900.5,389.5 900.5,390.5 900.5,391.5C 896.945,392.054 894.612,394.054 893.5,397.5C 893.167,398.5 892.5,399.167 891.5,399.5C 888.288,399.712 886.288,401.379 885.5,404.5C 882.633,404.369 880.967,405.703 880.5,408.5C 875.358,410.062 871.358,413.062 868.5,417.5C 866.217,417.608 864.217,418.441 862.5,420C 861.748,420.671 861.414,421.504 861.5,422.5C 856.665,424.016 852.665,426.683 849.5,430.5C 847.692,430.491 846.025,430.991 844.5,432C 818.106,448.279 790.272,461.779 761,472.5C 759.97,472.836 759.47,473.503 759.5,474.5C 758.292,475.234 756.959,475.567 755.5,475.5C 751.292,475.677 747.626,477.01 744.5,479.5C 743.292,480.234 741.959,480.567 740.5,480.5C 735.849,480.494 731.849,481.827 728.5,484.5C 727.833,484.5 727.167,484.5 726.5,484.5C 686.365,493.687 646.032,501.02 605.5,506.5C 544.893,511.663 484.226,516.163 423.5,520C 401.799,521.911 380.133,524.078 358.5,526.5C 335.918,528.819 313.585,532.653 291.5,538C 290.944,538.383 290.611,538.883 290.5,539.5C 287.237,540.482 283.903,541.149 280.5,541.5C 275.53,541.481 271.197,542.814 267.5,545.5C 264.933,546.475 262.267,547.142 259.5,547.5C 254.921,547.47 250.921,548.804 247.5,551.5C 244.301,552.899 240.968,553.899 237.5,554.5C 198.529,566.653 162.196,584.153 128.5,607C 127.748,607.671 127.414,608.504 127.5,609.5C 125.217,609.608 123.217,610.441 121.5,612C 118.833,614 116.167,616 113.5,618C 112.177,618.816 111.511,619.983 111.5,621.5C 108.288,621.712 106.288,623.379 105.5,626.5C 101.945,627.054 99.6118,629.054 98.5,632.5C 98.5,633.167 98.1667,633.5 97.5,633.5C 96.448,633.351 95.448,633.517 94.5,634C 88.6667,639.833 82.8333,645.667 77,651.5C 76.5172,652.448 76.3505,653.448 76.5,654.5C 76.1667,655.5 75.5,656.167 74.5,656.5C 71.0536,657.612 69.0536,659.945 68.5,663.5C 65.7026,663.967 64.3692,665.633 64.5,668.5C 61.0627,670.023 59.0627,672.689 58.5,676.5C 56.0882,676.694 55.0882,678.027 55.5,680.5C 51.9932,682.366 49.9932,685.366 49.5,689.5C 44.7521,693.309 41.7521,698.309 40.5,704.5C 37.9173,705.985 36.584,708.318 36.5,711.5C 36.5,712.167 36.1667,712.5 35.5,712.5C 27.728,714.219 24.228,711.219 25,703.5C 56.7089,646.458 101.542,602.958 159.5,573C 213.421,545.638 270.087,526.804 329.5,516.5C 338.424,515.988 347.091,514.655 355.5,512.5C 355.833,512.5 356.167,512.5 356.5,512.5C 361.75,512.698 366.75,512.031 371.5,510.5C 371.833,510.5 372.167,510.5 372.5,510.5C 378.404,510.679 384.071,510.012 389.5,508.5C 389.833,508.5 390.167,508.5 390.5,508.5C 398.079,508.906 405.412,508.239 412.5,506.5C 421.029,506.434 429.362,505.767 437.5,504.5C 447.024,504.399 456.357,503.733 465.5,502.5C 481.357,502.113 497.024,501.113 512.5,499.5C 522.694,499.487 532.694,498.82 542.5,497.5C 555.188,497.05 567.854,496.216 580.5,495C 581.737,494.768 582.737,494.268 583.5,493.5C 588.813,492.902 594.146,492.569 599.5,492.5C 610.769,492.175 621.769,490.842 632.5,488.5C 636.182,488.665 639.848,488.499 643.5,488C 644.737,487.768 645.737,487.268 646.5,486.5C 652.866,486.938 658.866,485.938 664.5,483.5C 668.458,483.749 672.124,483.082 675.5,481.5C 753.526,468.974 822.859,437.808 883.5,388C 926.296,351.495 953.796,305.662 966,250.5C 967.963,241.596 969.129,232.596 969.5,223.5C 969.5,221.5 969.5,219.5 969.5,217.5C 976.23,159.691 959.564,109.691 919.5,67.5C 918.583,66.8728 917.583,66.5394 916.5,66.5C 914.78,63.2689 912.447,60.4356 909.5,58C 878.35,31.8846 842.35,17.3846 801.5,14.5C 796.015,13.6728 790.348,13.1728 784.5,13C 780.547,8.83532 780.547,4.66865 784.5,0.5 Z"/></g>
<g><path style="opacity:0.349" fill="#665658" d="M 807.5,1.5 C 808.5,1.5 809.5,1.5 810.5,1.5C 869.113,8.54208 915.947,35.5421 951,82.5C 969.663,109.987 980.497,140.321 983.5,173.5C 980.494,152.158 974.661,131.492 966,111.5C 932.452,47.2897 879.619,10.6231 807.5,1.5 Z"/></g>
<g><path style="opacity:0.286" fill="#655557" d="M 783.5,0.5 C 783.833,0.5 784.167,0.5 784.5,0.5C 780.547,4.66865 780.547,8.83532 784.5,13C 790.348,13.1728 796.015,13.6728 801.5,14.5C 800.833,14.5 800.167,14.5 799.5,14.5C 793.379,14.9101 787.379,14.4101 781.5,13C 778.32,8.07581 778.987,3.90914 783.5,0.5 Z"/></g>
<g><path style="opacity:0.349" fill="#615254" d="M 799.5,14.5 C 800.167,14.5 800.833,14.5 801.5,14.5C 842.35,17.3846 878.35,31.8846 909.5,58C 912.447,60.4356 914.78,63.2689 916.5,66.5C 883.515,35.8449 844.515,18.5116 799.5,14.5 Z"/></g>
<g><path style="opacity:0.349" fill="#5f5053" d="M 916.5,66.5 C 917.583,66.5394 918.583,66.8728 919.5,67.5C 959.564,109.691 976.23,159.691 969.5,217.5C 973.801,170.366 962.634,127.366 936,88.5C 930.035,80.7011 923.535,73.3677 916.5,66.5 Z"/></g>
<g><path style="opacity:0.388" fill="#5c4e50" d="M 984.5,187.5 C 984.833,187.5 985.167,187.5 985.5,187.5C 985.5,194.833 985.5,202.167 985.5,209.5C 983.606,250.067 973.106,288.4 954,324.5C 948.973,333.241 943.473,341.575 937.5,349.5C 941.122,342.269 945.289,335.269 950,328.5C 974.204,284.683 985.704,237.683 984.5,187.5 Z"/></g>
<g><path style="opacity:0.533" fill="#655558" d="M 969.5,223.5 C 969.129,232.596 967.963,241.596 966,250.5C 953.796,305.662 926.296,351.495 883.5,388C 822.859,437.808 753.526,468.974 675.5,481.5C 741.944,469.303 802.944,444.136 858.5,406C 891.586,381.915 918.753,352.415 940,317.5C 955.807,287.92 965.64,256.586 969.5,223.5 Z"/></g>
<g><path style="opacity:0.349" fill="#645456" d="M 937.5,349.5 C 935.853,352.473 933.853,355.14 931.5,357.5C 931.954,354.86 933.121,352.527 935,350.5C 935.671,349.748 936.504,349.414 937.5,349.5 Z"/></g>
<g><path style="opacity:0.314" fill="#645557" d="M 931.5,357.5 C 930.396,359.389 929.063,361.055 927.5,362.5C 927.369,359.633 928.703,357.967 931.5,357.5 Z"/></g>
<g><path style="opacity:0.349" fill="#6a585c" d="M 927.5,362.5 C 926.136,364.191 924.803,365.858 923.5,367.5C 923.369,364.633 924.703,362.967 927.5,362.5 Z"/></g>
<g><path style="opacity:0.349" fill="#67575a" d="M 922.5,368.5 C 919.391,372.397 916.057,376.064 912.5,379.5C 914.376,374.619 917.709,370.952 922.5,368.5 Z"/></g>
<g><path style="opacity:0.349" fill="#55494b" d="M 903.5,388.5 C 902.833,389.833 901.833,390.833 900.5,391.5C 900.5,390.5 900.5,389.5 900.5,388.5C 901.5,388.5 902.5,388.5 903.5,388.5 Z"/></g>
<g><path style="opacity:0.397" fill="#6e5c5f" d="M 900.5,391.5 C 898.192,393.471 895.858,395.471 893.5,397.5C 894.612,394.054 896.945,392.054 900.5,391.5 Z"/></g>
<g><path style="opacity:0.441" fill="#705e61" d="M 891.5,399.5 C 889.525,401.137 887.525,402.804 885.5,404.5C 886.288,401.379 888.288,399.712 891.5,399.5 Z"/></g>
<g><path style="opacity:0.349" fill="#68575a" d="M 885.5,404.5 C 883.858,405.803 882.191,407.136 880.5,408.5C 880.967,405.703 882.633,404.369 885.5,404.5 Z"/></g>
<g><path style="opacity:0.349" fill="#69585b" d="M 880.5,408.5 C 876.896,411.975 872.896,414.975 868.5,417.5C 871.358,413.062 875.358,410.062 880.5,408.5 Z"/></g>
<g><path style="opacity:1" fill="#d1a7b3" d="M 206.5,1143.5 C 199.167,1143.5 191.833,1143.5 184.5,1143.5C 117.959,1136.66 66.1255,1105.66 29,1050.5C 11.7293,1021.39 1.89602,990.06 -0.5,956.5C -0.5,945.167 -0.5,933.833 -0.5,922.5C 5.59602,845.262 38.2627,781.762 97.5,732C 163.247,679.812 237.913,647.146 321.5,634C 349.349,629.186 377.349,625.519 405.5,623C 461.477,618.688 517.477,614.688 573.5,611C 645.243,607.118 714.909,593.118 782.5,569C 840.673,548.117 890.839,515.284 933,470.5C 948.014,453.475 960.681,434.809 971,414.5C 980.842,409.682 985.175,412.682 984,423.5C 959.63,468.206 926.463,505.039 884.5,534C 828.199,570.89 766.866,595.89 700.5,609C 662.494,616.668 624.161,622.001 585.5,625C 522.467,629.237 459.467,633.904 396.5,639C 343.634,643.44 291.968,653.773 241.5,670C 187.432,688.52 139.099,716.52 96.5,754C 28.2092,819.613 3.04252,899.113 21,992.5C 39.0626,1052.9 77.5626,1094.4 136.5,1117C 159.852,1124.58 183.685,1129.08 208,1130.5C 210.361,1135.27 209.861,1139.6 206.5,1143.5 Z"/></g>
<g><path style="opacity:0.388" fill="#645457" d="M 868.5,417.5 C 866.469,419.522 864.135,421.189 861.5,422.5C 861.414,421.504 861.748,420.671 862.5,420C 864.217,418.441 866.217,417.608 868.5,417.5 Z"/></g>
<g><path style="opacity:0.349" fill="#68575a" d="M 861.5,422.5 C 857.795,425.526 853.795,428.192 849.5,430.5C 852.665,426.683 856.665,424.016 861.5,422.5 Z"/></g>
<g><path style="opacity:0.369" fill="#655557" d="M 849.5,430.5 C 821.403,448.772 791.403,463.439 759.5,474.5C 759.47,473.503 759.97,472.836 761,472.5C 790.272,461.779 818.106,448.279 844.5,432C 846.025,430.991 847.692,430.491 849.5,430.5 Z"/></g>
<g><path style="opacity:0.388" fill="#5d4e51" d="M 755.5,475.5 C 752.061,477.204 748.395,478.538 744.5,479.5C 747.626,477.01 751.292,475.677 755.5,475.5 Z"/></g>
<g><path style="opacity:0.351" fill="#5b4d50" d="M 740.5,480.5 C 736.659,482.003 732.659,483.336 728.5,484.5C 731.849,481.827 735.849,480.494 740.5,480.5 Z"/></g>
<g><path style="opacity:0.349" fill="#5c4d50" d="M 675.5,481.5 C 672.124,483.082 668.458,483.749 664.5,483.5C 667.946,482.313 671.613,481.646 675.5,481.5 Z"/></g>
<g><path style="opacity:1" fill="#7c6769" d="M 664.5,483.5 C 658.866,485.938 652.866,486.938 646.5,486.5C 652.28,484.957 658.28,483.957 664.5,483.5 Z"/></g>
<g><path style="opacity:1" fill="#816a6e" d="M 646.5,486.5 C 645.737,487.268 644.737,487.768 643.5,488C 639.848,488.499 636.182,488.665 632.5,488.5C 636.943,487.199 641.609,486.532 646.5,486.5 Z"/></g>
<g><path style="opacity:0.362" fill="#675659" d="M 632.5,488.5 C 621.769,490.842 610.769,492.175 599.5,492.5C 610.309,490.742 621.309,489.409 632.5,488.5 Z"/></g>
<g><path style="opacity:0.349" fill="#5e5052" d="M 726.5,484.5 C 686.945,495.372 646.612,502.706 605.5,506.5C 646.032,501.02 686.365,493.687 726.5,484.5 Z"/></g>
<g><path style="opacity:0.349" fill="#5a4d4f" d="M 583.5,493.5 C 582.737,494.268 581.737,494.768 580.5,495C 567.854,496.216 555.188,497.05 542.5,497.5C 542.167,497.5 541.833,497.5 541.5,497.5C 555.342,496.022 569.342,494.689 583.5,493.5 Z"/></g>
<g><path style="opacity:0.342" fill="#5a4c4e" d="M 541.5,497.5 C 541.833,497.5 542.167,497.5 542.5,497.5C 532.694,498.82 522.694,499.487 512.5,499.5C 512.167,499.5 511.833,499.5 511.5,499.5C 521.306,498.18 531.306,497.513 541.5,497.5 Z"/></g>
<g><path style="opacity:0.969" fill="#605153" d="M 511.5,499.5 C 511.833,499.5 512.167,499.5 512.5,499.5C 497.024,501.113 481.357,502.113 465.5,502.5C 465.167,502.5 464.833,502.5 464.5,502.5C 479.971,500.804 495.638,499.804 511.5,499.5 Z"/></g>
<g><path style="opacity:0.349" fill="#5d4f51" d="M 464.5,502.5 C 464.833,502.5 465.167,502.5 465.5,502.5C 456.357,503.733 447.024,504.399 437.5,504.5C 436.5,504.5 435.5,504.5 434.5,504.5C 444.306,503.18 454.306,502.513 464.5,502.5 Z"/></g>
<g><path style="opacity:0.406" fill="#5e4f51" d="M 434.5,504.5 C 435.5,504.5 436.5,504.5 437.5,504.5C 429.362,505.767 421.029,506.434 412.5,506.5C 412.167,506.5 411.833,506.5 411.5,506.5C 418.96,505.128 426.626,504.461 434.5,504.5 Z"/></g>
<g><path style="opacity:1" fill="#786467" d="M 411.5,506.5 C 411.833,506.5 412.167,506.5 412.5,506.5C 405.412,508.239 398.079,508.906 390.5,508.5C 397.289,507.125 404.289,506.458 411.5,506.5 Z"/></g>
<g><path style="opacity:0.359" fill="#594c4f" d="M 389.5,508.5 C 384.071,510.012 378.404,510.679 372.5,510.5C 377.96,509.263 383.627,508.596 389.5,508.5 Z"/></g>
<g><path style="opacity:0.969" fill="#635455" d="M 371.5,510.5 C 366.75,512.031 361.75,512.698 356.5,512.5C 361.29,511.275 366.29,510.608 371.5,510.5 Z"/></g>
<g><path style="opacity:0.349" fill="#5a4c4f" d="M 355.5,512.5 C 347.091,514.655 338.424,515.988 329.5,516.5C 337.937,514.531 346.604,513.198 355.5,512.5 Z"/></g>
<g><path style="opacity:0.374" fill="#5c4e50" d="M 358.5,526.5 C 335.801,530.039 313.134,534.372 290.5,539.5C 290.611,538.883 290.944,538.383 291.5,538C 313.585,532.653 335.918,528.819 358.5,526.5 Z"/></g>
<g><path style="opacity:0.349" fill="#5b4d4f" d="M 280.5,541.5 C 276.383,543.203 272.05,544.537 267.5,545.5C 271.197,542.814 275.53,541.481 280.5,541.5 Z"/></g>
<g><path style="opacity:0.422" fill="#665558" d="M 329.5,516.5 C 270.087,526.804 213.421,545.638 159.5,573C 101.542,602.958 56.7089,646.458 25,703.5C 24.228,711.219 27.728,714.219 35.5,712.5C 26.3287,715.501 22.4954,712.168 24,702.5C 53.8333,648.667 95.6667,606.833 149.5,577C 205.929,546.357 265.929,526.19 329.5,516.5 Z"/></g>
<g><path style="opacity:0.388" fill="#56494b" d="M 259.5,547.5 C 255.659,549.003 251.659,550.336 247.5,551.5C 250.921,548.804 254.921,547.47 259.5,547.5 Z"/></g>
<g><path style="opacity:0.388" fill="#625255" d="M 237.5,554.5 C 198.389,568.055 161.722,586.389 127.5,609.5C 127.414,608.504 127.748,607.671 128.5,607C 162.196,584.153 198.529,566.653 237.5,554.5 Z"/></g>
<g><path style="opacity:0.314" fill="#69585a" d="M 127.5,609.5 C 122.473,613.853 117.14,617.853 111.5,621.5C 111.511,619.983 112.177,618.816 113.5,618C 116.167,616 118.833,614 121.5,612C 123.217,610.441 125.217,609.608 127.5,609.5 Z"/></g>
<g><path style="opacity:0.349" fill="#665659" d="M 111.5,621.5 C 109.54,623.156 107.54,624.823 105.5,626.5C 106.288,623.379 108.288,621.712 111.5,621.5 Z"/></g>
<g><path style="opacity:0.349" fill="#6f5c60" d="M 105.5,626.5 C 103.192,628.471 100.858,630.471 98.5,632.5C 99.6118,629.054 101.945,627.054 105.5,626.5 Z"/></g>
<g><path style="opacity:0.388" fill="#776266" d="M 97.5,633.5 C 90.1667,640.167 83.1667,647.167 76.5,654.5C 76.3505,653.448 76.5172,652.448 77,651.5C 82.8333,645.667 88.6667,639.833 94.5,634C 95.448,633.517 96.448,633.351 97.5,633.5 Z"/></g>
<g><path style="opacity:0.349" fill="#6b5a5d" d="M 74.5,656.5 C 72.4707,658.858 70.4707,661.192 68.5,663.5C 69.0536,659.945 71.0536,657.612 74.5,656.5 Z"/></g>
<g><path style="opacity:0.349" fill="#635356" d="M 68.5,663.5 C 67.396,665.389 66.0627,667.055 64.5,668.5C 64.3692,665.633 65.7026,663.967 68.5,663.5 Z"/></g>
<g><path style="opacity:0.388" fill="#655658" d="M 64.5,668.5 C 62.8532,671.473 60.8532,674.14 58.5,676.5C 59.0627,672.689 61.0627,670.023 64.5,668.5 Z"/></g>
<g><path style="opacity:0.388" fill="#635356" d="M 58.5,676.5 C 57.4884,677.872 56.4884,679.205 55.5,680.5C 55.0882,678.027 56.0882,676.694 58.5,676.5 Z"/></g>
<g><path style="opacity:0.349" fill="#5d4f51" d="M 55.5,680.5 C 53.7349,683.709 51.7349,686.709 49.5,689.5C 49.9932,685.366 51.9932,682.366 55.5,680.5 Z"/></g>
<g><path style="opacity:0.388" fill="#635356" d="M 49.5,689.5 C 46.737,694.701 43.737,699.701 40.5,704.5C 41.7521,698.309 44.7521,693.309 49.5,689.5 Z"/></g>
<g><path style="opacity:0.388" fill="#584c4e" d="M 40.5,704.5 C 39.4043,707.032 38.0709,709.365 36.5,711.5C 36.584,708.318 37.9173,705.985 40.5,704.5 Z"/></g>
</svg>
